<?xml version="1.0" encoding="UTF-8"?>
<svg id="Layer_1" xmlns="http://www.w3.org/2000/svg" version="1.1" viewBox="0 0 1440 1440">
  <!-- Generator: Adobe Illustrator 29.8.1, SVG Export Plug-In . SVG Version: 2.1.1 Build 2)  -->
  <defs>
    <style>
      .st0 {
        fill: #fff;
      }
    </style>
  </defs>
  <circle class="st0" cx="720" cy="720" r="175"/>
  <path class="st0" d="M1020,120H420c-165.69,0-300,134.31-300,300v600c0,165.69,134.31,300,300,300h600c165.69,0,300-134.31,300-300V420c0-165.69-134.31-300-300-300ZM1093.44,844.48l-248.96,248.96c-68.75,68.75-180.21,68.75-248.96,0l-248.95-248.96c-68.75-68.75-68.75-180.21,0-248.96l248.95-248.96c68.75-68.75,180.21-68.75,248.96,0l248.96,248.96c68.75,68.75,68.75,180.21,0,248.96Z"/>
  <circle class="st0" cx="720" cy="720" r="175"/>
</svg>